<svg width="20" height="21" viewBox="0 0 20 21" fill="none" xmlns="http://www.w3.org/2000/svg">
<path d="M17.298 8.52084H2.702C2.40662 8.52117 2.11513 8.58825 1.84932 8.71709C1.58351 8.84592 1.35026 9.03317 1.167 9.26484C0.984507 9.49585 0.856982 9.76537 0.79409 10.053C0.731198 10.3406 0.734588 10.6387 0.804003 10.9248L2.369 17.3328C2.59559 18.1584 3.08756 18.8866 3.769 19.4048C4.451 19.9238 5.286 20.2048 6.145 20.2048H13.853C14.712 20.2048 15.547 19.9238 16.229 19.4048C16.9104 18.8866 17.4024 18.1584 17.629 17.3328L19.194 10.9258C19.2993 10.4939 19.2531 10.0389 19.0631 9.63693C18.873 9.23499 18.5507 8.91052 18.15 8.71783C17.8834 8.58984 17.5917 8.52255 17.296 8.52084M6.087 12.4148V16.3098M10 12.4148V16.3098M13.913 12.4148V16.3098M16.848 8.52084C16.8477 7.62488 16.6703 6.73783 16.326 5.91065C15.9817 5.08347 15.4774 4.33248 14.842 3.70084C13.5555 2.42133 11.8145 1.70364 10 1.70484C8.18555 1.70364 6.44452 2.42133 5.158 3.70084C4.52277 4.33257 4.01862 5.08359 3.67454 5.91077C3.33046 6.73794 3.15322 7.62495 3.153 8.52084" stroke="black" stroke-width="1.5" stroke-linecap="round" stroke-linejoin="round"/>
</svg>
