<svg width="19" height="18" viewBox="0 0 19 18" fill="none" xmlns="http://www.w3.org/2000/svg">
<path d="M1.414 5.8085L0.707 6.5155L0 5.8085L0.707 5.1015L1.414 5.8085ZM6.414 17.8085C6.14878 17.8085 5.89443 17.7031 5.70689 17.5156C5.51936 17.3281 5.414 17.0737 5.414 16.8085C5.414 16.5433 5.51936 16.2889 5.70689 16.1014C5.89443 15.9139 6.14878 15.8085 6.414 15.8085V17.8085ZM5.707 11.5155L0.707 6.5155L2.121 5.1015L7.121 10.1015L5.707 11.5155ZM0.707 5.1015L5.707 0.101501L7.121 1.5155L2.121 6.5155L0.707 5.1015ZM1.414 4.8085H11.914V6.8085H1.414V4.8085ZM11.914 17.8085H6.414V15.8085H11.914V17.8085ZM18.414 11.3085C18.414 13.0324 17.7292 14.6857 16.5102 15.9047C15.2912 17.1237 13.6379 17.8085 11.914 17.8085V15.8085C12.5049 15.8085 13.0901 15.6921 13.6361 15.466C14.182 15.2398 14.6781 14.9083 15.096 14.4905C15.5138 14.0726 15.8453 13.5765 16.0715 13.0306C16.2976 12.4846 16.414 11.8994 16.414 11.3085H18.414ZM11.914 4.8085C13.6379 4.8085 15.2912 5.49332 16.5102 6.71231C17.7292 7.93129 18.414 9.58459 18.414 11.3085H16.414C16.414 10.7176 16.2976 10.1324 16.0715 9.58643C15.8453 9.04046 15.5138 8.54438 15.096 8.12652C14.6781 7.70866 14.182 7.37719 13.6361 7.15104C13.0901 6.9249 12.5049 6.8085 11.914 6.8085V4.8085Z" fill="black"/>
</svg>
