<svg width="21" height="22" viewBox="0 0 21 22" fill="none" xmlns="http://www.w3.org/2000/svg">
<path d="M16.031 15.5267L20.314 19.8087L18.899 21.2237L14.617 16.9407C13.0237 18.2179 11.042 18.9126 9 18.9097C4.032 18.9097 0 14.8777 0 9.9097C0 4.9417 4.032 0.909698 9 0.909698C13.968 0.909698 18 4.9417 18 9.9097C18.0029 11.9517 17.3082 13.9334 16.031 15.5267ZM14.025 14.7847C15.2938 13.4794 16.0025 11.7301 16 9.9097C16 6.0427 12.867 2.9097 9 2.9097C5.133 2.9097 2 6.0427 2 9.9097C2 13.7767 5.133 16.9097 9 16.9097C10.8204 16.9122 12.5697 16.2035 13.875 14.9347L14.025 14.7847Z" fill="black" fill-opacity="0.5"/>
</svg>
