<svg width="20" height="21" viewBox="0 0 20 21" fill="none" xmlns="http://www.w3.org/2000/svg">
<path d="M1.77799 1.88416C1.59699 2.24416 1.50799 2.69016 1.32999 3.58016L0.731993 6.57016C0.647241 6.97783 0.646585 7.39851 0.730063 7.80645C0.813542 8.21439 0.979399 8.601 1.21748 8.94261C1.45556 9.28422 1.76086 9.57365 2.11468 9.79317C2.4685 10.0127 2.86341 10.1577 3.27522 10.2193C3.68702 10.2809 4.10707 10.2578 4.50965 10.1514C4.91222 10.0451 5.28885 9.85766 5.61648 9.60068C5.94411 9.34369 6.21584 9.02254 6.41505 8.65689C6.61425 8.29124 6.73673 7.88879 6.77499 7.47416L6.84499 6.78416C6.8071 7.223 6.86115 7.66491 7.00372 8.08168C7.14628 8.49844 7.37421 8.88088 7.67295 9.20456C7.97169 9.52825 8.33466 9.78606 8.73868 9.96152C9.14269 10.137 9.57887 10.2262 10.0193 10.2236C10.4598 10.2209 10.8949 10.1264 11.2967 9.94611C11.6986 9.76579 12.0584 9.50363 12.3533 9.17636C12.6481 8.8491 12.8714 8.46394 13.0089 8.04549C13.1464 7.62704 13.1952 7.18451 13.152 6.74616L13.225 7.47416C13.2633 7.88879 13.3857 8.29124 13.5849 8.65689C13.7841 9.02254 14.0559 9.34369 14.3835 9.60068C14.7111 9.85766 15.0878 10.0451 15.4903 10.1514C15.8929 10.2578 16.313 10.2809 16.7248 10.2193C17.1366 10.1577 17.5315 10.0127 17.8853 9.79317C18.2391 9.57365 18.5444 9.28422 18.7825 8.94261C19.0206 8.601 19.1864 8.21439 19.2699 7.80645C19.3534 7.39851 19.3527 6.97783 19.268 6.57016L18.67 3.58016C18.492 2.69016 18.403 2.24516 18.222 1.88416C18.0334 1.50819 17.7678 1.17609 17.4426 0.909407C17.1173 0.642721 16.7396 0.447412 16.334 0.336157C15.944 0.229157 15.49 0.229156 14.582 0.229156H5.41799C4.50999 0.229156 4.05599 0.229157 3.66599 0.336157C3.26036 0.447412 2.88266 0.642721 2.5574 0.909407C2.23213 1.17609 1.96659 1.50819 1.77799 1.88416ZM16.269 11.7292C17.0503 11.7311 17.8189 11.531 18.5 11.1482V12.2292C18.5 16.0002 18.5 17.8862 17.328 19.0572C16.385 20.0012 14.98 20.1842 12.5 20.2202V16.7292C12.5 15.7942 12.5 15.3272 12.299 14.9792C12.1673 14.7511 11.978 14.5618 11.75 14.4302C11.402 14.2292 10.935 14.2292 9.99999 14.2292C9.06499 14.2292 8.59799 14.2292 8.24999 14.4302C8.02198 14.5618 7.83264 14.7511 7.70099 14.9792C7.49999 15.3272 7.49999 15.7942 7.49999 16.7292V20.2202C5.01999 20.1842 3.61499 20.0002 2.67199 19.0572C1.49999 17.8862 1.49999 16.0002 1.49999 12.2292V11.1482C2.1814 11.5311 2.95033 11.7313 3.73199 11.7292C4.88763 11.7299 6.00025 11.2908 6.84399 10.5012C7.70371 11.2935 8.83085 11.7321 9.99999 11.7292C11.1691 11.7321 12.2963 11.2935 13.156 10.5012C13.9997 11.2908 15.1134 11.7299 16.269 11.7292Z" fill="#95CE77"/>
</svg>
